<?xml version="1.0" ?><!DOCTYPE svg  PUBLIC '-//W3C//DTD SVG 1.1//EN'  'http://www.w3.org/Graphics/SVG/1.1/DTD/svg11.dtd'><svg enable-background="new 0 0 128 128" version="1.1" viewBox="0 0 128 128" xml:space="preserve" xmlns="http://www.w3.org/2000/svg" xmlns:xlink="http://www.w3.org/1999/xlink"><g id="Layer_1"/><g id="Layer_2"><g><circle cx="64" cy="64" fill="#038ECE" r="64"/><g><defs><circle cx="64" cy="64" id="SVGID_81_" r="64"/></defs><clipPath id="SVGID_2_"><use overflow="visible" xlink:href="#SVGID_81_"/></clipPath><polygon clip-path="url(#SVGID_2_)" fill="#007ABF" points="79.632,25.59 128,73.958 128,128 0,128 0,90.022 36.777,82.472      45.52,71.703 49.777,75.93 59.58,75.95 44.974,61.281    "/></g><g><defs><circle cx="64" cy="64" id="SVGID_83_" r="64"/></defs><clipPath id="SVGID_4_"><use overflow="visible" xlink:href="#SVGID_83_"/></clipPath><g clip-path="url(#SVGID_4_)"><rect fill="#EEF0F3" height="26" width="128" y="76"/><rect fill="#FFFFFF" height="8" width="128" x="0" y="76"/><rect fill="#DDE1E6" height="8" width="128" y="94"/><rect fill="#FFFFFF" height="10" width="36" x="46" y="74"/><rect fill="#DDE1E6" height="10" width="36" x="46" y="94"/></g></g><path d="M55,65v9c0,2.209,4.029,4,9,4s9-1.791,9-4v-9H55z" fill="#DAE1E5"/><circle cx="64" cy="45" fill="#72C9F0" r="25"/><path d="M82.904,43.061c1.19,12.017-8.826,22.032-20.842,20.842c-8.892-0.881-16.085-8.073-16.965-16.965    c-1.19-12.017,8.826-22.032,20.842-20.842C74.831,26.977,82.023,34.169,82.904,43.061z" fill="#EBF0F1"/><path d="M46,106c0,1.105-0.895,2-2,2h-8c-1.105,0-2-0.895-2-2V72c0-1.105,0.895-2,2-2h8c1.105,0,2,0.895,2,2V106z" fill="#DAE1E5"/><path d="M46,106c0,1.105-0.895,2-2,2h-8c-1.105,0-2-0.895-2-2V72c0-1.105,0.895-2,2-2h8c1.105,0,2,0.895,2,2V106z" fill="#DAE1E5"/><g><path d="M46,106c0,1.105-0.895,2-2,2h-8c-1.105,0-2-0.895-2-2V72c0-1.105,0.895-2,2-2h8c1.105,0,2,0.895,2,2V106z     " fill="#DAE1E5"/><path d="M34,94v12c0,1.105,0.895,2,2,2h8c1.105,0,2-0.895,2-2V94H34z" fill="#C4CFD6"/><path d="M34,84V72c0-1.105,0.895-2,2-2h8c1.105,0,2,0.895,2,2v12H34z" fill="#EEF0F3"/><g><g><g><circle cx="40" cy="74" fill="#FFFFFF" r="1.5"/><path d="M41.061,75.061c0.586-0.586,0.586-1.536,0-2.121l-2.121,2.121        C39.525,75.646,40.475,75.646,41.061,75.061z" fill="#BCCFDA"/></g></g><g><g><circle cx="40" cy="84" fill="#FFFFFF" r="1.5"/><path d="M41.061,85.061c0.586-0.586,0.586-1.536,0-2.121l-2.121,2.121        C39.525,85.646,40.475,85.646,41.061,85.061z" fill="#BCCFDA"/></g></g><g><g><circle cx="40" cy="94" fill="#FFFFFF" r="1.5"/><path d="M41.061,95.061c0.586-0.586,0.586-1.536,0-2.121l-2.121,2.121        C39.525,95.646,40.475,95.646,41.061,95.061z" fill="#BCCFDA"/></g></g><g><g><circle cx="40" cy="104" fill="#FFFFFF" r="1.5"/><path d="M41.061,105.061c0.586-0.586,0.586-1.536,0-2.121l-2.121,2.121        C39.525,105.646,40.475,105.646,41.061,105.061z" fill="#BCCFDA"/></g></g></g></g><g><path d="M94,106c0,1.105-0.895,2-2,2h-8c-1.105,0-2-0.895-2-2V72c0-1.105,0.895-2,2-2h8c1.105,0,2,0.895,2,2V106z     " fill="#DAE1E5"/><path d="M82,94v12c0,1.105,0.895,2,2,2h8c1.105,0,2-0.895,2-2V94H82z" fill="#C4CFD6"/><path d="M82,84V72c0-1.105,0.895-2,2-2h8c1.105,0,2,0.895,2,2v12H82z" fill="#EEF0F3"/><g><g><g><circle cx="88" cy="74" fill="#FFFFFF" r="1.5"/><path d="M89.061,75.061c0.586-0.586,0.586-1.536,0-2.121l-2.121,2.121        C87.525,75.646,88.475,75.646,89.061,75.061z" fill="#BCCFDA"/></g></g><g><g><circle cx="88" cy="84" fill="#FFFFFF" r="1.5"/><path d="M89.061,85.061c0.586-0.586,0.586-1.536,0-2.121l-2.121,2.121        C87.525,85.646,88.475,85.646,89.061,85.061z" fill="#BCCFDA"/></g></g><g><g><circle cx="88" cy="94" fill="#FFFFFF" r="1.5"/><path d="M89.061,95.061c0.586-0.586,0.586-1.536,0-2.121l-2.121,2.121        C87.525,95.646,88.475,95.646,89.061,95.061z" fill="#BCCFDA"/></g></g><g><g><circle cx="88" cy="104" fill="#FFFFFF" r="1.5"/><path d="M89.061,105.061c0.586-0.586,0.586-1.536,0-2.121l-2.121,2.121        C87.525,105.646,88.475,105.646,89.061,105.061z" fill="#BCCFDA"/></g></g></g></g><g><defs><circle cx="64" cy="45" id="SVGID_85_" r="25"/></defs><clipPath id="SVGID_8_"><use overflow="visible" xlink:href="#SVGID_85_"/></clipPath><polygon clip-path="url(#SVGID_8_)" fill="#4AB6E6" points="49.38,59.502 60.779,71 70.693,71 81.527,66.654 89,56.521      92.519,44.338 78.48,30.326    "/></g><circle cx="64" cy="45.005" fill="#EBF0F4" r="19"/><path d="M64,26.003c-3.896,0-7.508,1.187-10.523,3.2l4.22,6.011c1.818-1.173,3.977-1.862,6.302-1.862    c5.706,0,10.454,4.098,11.458,9.514C75.687,44.099,76.751,45,78.007,45H83C83,35,74.493,26.003,64,26.003z" fill="#89BE36"/><g><defs><circle cx="64" cy="45.005" id="SVGID_87_" r="19"/></defs><clipPath id="SVGID_9_"><use overflow="visible" xlink:href="#SVGID_87_"/></clipPath><polygon clip-path="url(#SVGID_9_)" fill="#CDD7E6" points="62.114,46.724 76.539,61.148 83,52.027 84.579,42.286 75.557,33.24         "/></g><g><defs><path d="M83,45c0-10-8.507-18.997-19-18.997c-4.073,0-7.843,1.287-10.936,3.469l4.228,6.006      c1.897-1.338,4.21-2.127,6.708-2.127c5.706,0,10.454,4.098,11.458,9.514C75.687,44.099,76.751,45,78.007,45H83z" id="SVGID_89_"/></defs><clipPath id="SVGID_10_"><use overflow="visible" xlink:href="#SVGID_89_"/></clipPath><polygon clip-path="url(#SVGID_10_)" fill="#64A93A" points="62.114,46.724 76.539,61.148 83,52.027 84.579,42.286 75.557,33.24         "/></g><g><path d="M75.575,33.475c0.123-0.166-0.086-0.375-0.252-0.252l-12.728,9.434c-0.641,0.384-1.085,1.026-1.218,1.761     l0,0c-0.319,1.774,1.229,3.322,3.003,3.003h0c0.735-0.132,1.378-0.576,1.761-1.218L75.575,33.475z" fill="#3B353E"/></g><g><circle cx="63.838" cy="59.913" fill="#98B8BB" r="0.883"/><circle cx="72.21" cy="56.96" fill="#98B8BB" r="0.883"/><circle cx="55.214" cy="56.96" fill="#98B8BB" r="0.883"/><circle cx="76.963" cy="50.49" fill="#98B8BB" r="0.883"/><circle cx="50.263" cy="50.49" fill="#98B8BB" r="0.883"/></g><circle cx="63.838" cy="44.904" fill="#A1BEC7" r="1.152"/><rect fill="#98B8BB" height="3" width="8" x="60" y="51"/><path d="M52.659,29.776C48.015,33.262,45,39.17,45,45h4.992c1.26,0,2.32-0.906,2.551-2.144    c0.534-2.864,2.124-5.348,4.34-7.062L52.659,29.776z" fill="#F54F33"/><path d="M64,65.505c-11.359,0-20.601-9.242-20.601-20.601S52.641,24.303,64,24.303    c11.36,0,20.601,9.242,20.601,20.601S75.36,65.505,64,65.505z M64,27.303c-9.705,0-17.601,7.896-17.601,17.601    S54.295,62.505,64,62.505c9.706,0,17.601-7.896,17.601-17.601S73.706,27.303,64,27.303z" fill="#FFFFFF"/></g></g></svg>